<?xml version="1.0" encoding="iso-8859-1"?>
<!-- Generator: Adobe Illustrator 19.0.0, SVG Export Plug-In . SVG Version: 6.00 Build 0)  -->
<svg version="1.1" id="Capa_1" xmlns="http://www.w3.org/2000/svg" xmlns:xlink="http://www.w3.org/1999/xlink" x="0px" y="0px"
	 viewBox="0 0 512 512" style="enable-background:new 0 0 512 512;" xml:space="preserve">
<path style="fill:#C8F5FF;" d="M448,130v324c0,26.51-21.49,48-48,48H112c-26.51,0-48-21.49-48-48V130H448z"/>
<g>
	<path style="fill:#78D2FA;" d="M207.786,130H40V78c0-11.046,8.954-20,20-20h392c11.046,0,20,8.954,20,20v52H299.875H207.786z"/>
	<path style="fill:#78D2FA;" d="M152,448L152,448c-13.255,0-24-10.745-24-24V208c0-13.255,10.745-24,24-24l0,0
		c13.255,0,24,10.745,24,24v216C176,437.255,165.255,448,152,448z"/>
	<path style="fill:#78D2FA;" d="M256.127,448L256.127,448c-13.255,0-24-10.745-24-24V208c0-13.255,10.745-24,24-24l0,0
		c13.255,0,24,10.745,24,24v216C280.127,437.255,269.382,448,256.127,448z"/>
	<path style="fill:#78D2FA;" d="M360.254,448L360.254,448c-13.255,0-24-10.745-24-24V208c0-13.255,10.745-24,24-24l0,0
		c13.255,0,24,10.745,24,24v216C384.254,437.255,373.509,448,360.254,448z"/>
</g>
<path d="M452,48H326v-7.667C326,18.094,307.906,0,285.667,0h-59.334C204.094,0,186,18.094,186,40.333V48H60
	c-16.542,0-30,13.458-30,30v52c0,5.522,4.478,10,10,10h14v107.667c0,5.522,4.478,10,10,10s10-4.478,10-10V140h133.786
	c5.522,0,10-4.478,10-10s-4.478-10-10-10H50V78c0-5.514,4.486-10,10-10h136h120h136c5.514,0,10,4.486,10,10v42H299.875
	c-5.522,0-10,4.478-10,10s4.478,10,10,10H438v314c0,20.953-17.047,38-38,38H112c-20.953,0-38-17.047-38-38V346.333
	c0-5.522-4.478-10-10-10s-10,4.478-10,10V454c0,31.981,26.019,58,58,58h288c31.981,0,58-26.019,58-58V140h14c5.522,0,10-4.478,10-10
	V78C482,61.458,468.542,48,452,48z M206,48v-7.667C206,29.121,215.121,20,226.333,20h59.334C296.879,20,306,29.121,306,40.333V48
	H206z"/>
<path d="M263.069,143.069C264.93,141.21,266,138.63,266,136s-1.07-5.21-2.931-7.07C261.21,127.07,258.63,126,256,126
	s-5.21,1.069-7.07,2.93c-1.86,1.861-2.93,4.44-2.93,7.07s1.069,5.21,2.93,7.069c1.86,1.86,4.44,2.931,7.07,2.931
	S261.21,144.93,263.069,143.069z"/>
<path d="M186,424V208c0-18.748-15.252-34-34-34s-34,15.252-34,34v216c0,18.748,15.252,34,34,34S186,442.748,186,424z M138,424V208
	c0-7.72,6.28-14,14-14s14,6.28,14,14v216c0,7.72-6.28,14-14,14S138,431.72,138,424z"/>
<path d="M222.127,208v216c0,18.748,15.252,34,34,34s34-15.252,34-34V208c0-18.748-15.252-34-34-34S222.127,189.252,222.127,208z
	 M242.127,208c0-7.72,6.28-14,14-14c7.72,0,14,6.28,14,14v216c0,7.72-6.28,14-14,14s-14-6.28-14-14L242.127,208L242.127,208z"/>
<path d="M394.254,424V208c0-18.748-15.252-34-34-34s-34,15.252-34,34v216c0,18.748,15.252,34,34,34S394.254,442.748,394.254,424z
	 M346.254,424V208c0-7.72,6.28-14,14-14s14,6.28,14,14v216c0,7.72-6.28,14-14,14S346.254,431.72,346.254,424z"/>
<path d="M64,308.33c2.63,0,5.21-1.061,7.069-2.931C72.93,303.54,74,300.96,74,298.33s-1.07-5.21-2.931-7.07
	c-1.859-1.86-4.439-2.93-7.069-2.93s-5.21,1.069-7.07,2.93S54,295.7,54,298.33c0,2.64,1.069,5.21,2.93,7.069
	C58.79,307.27,61.37,308.33,64,308.33z"/>
<g>
</g>
<g>
</g>
<g>
</g>
<g>
</g>
<g>
</g>
<g>
</g>
<g>
</g>
<g>
</g>
<g>
</g>
<g>
</g>
<g>
</g>
<g>
</g>
<g>
</g>
<g>
</g>
<g>
</g>
</svg>
