<?xml version="1.0" encoding="iso-8859-1"?>
<!-- Generator: Adobe Illustrator 19.0.0, SVG Export Plug-In . SVG Version: 6.00 Build 0)  -->
<svg version="1.1" id="Layer_1" xmlns="http://www.w3.org/2000/svg" xmlns:xlink="http://www.w3.org/1999/xlink" x="0px" y="0px"
	 viewBox="0 0 512 512" style="enable-background:new 0 0 512 512;" xml:space="preserve">
<path style="fill:#E4F5F4;" d="M445.057,76.207l0.013,28.014c0,0,0,0-0.013,0H66.943V76.207H445.057z"/>
<path style="fill:#31CCC9;" d="M418.407,130.209l-1.208,28.274c-0.091,0-0.182-0.013-0.273-0.013c-0.182,0-0.364,0-0.546,0
	c-6.926,0-12.682,5.47-12.968,12.448l-12.253,296.644c-0.429,10.343-8.875,18.451-19.244,18.451H140.084
	c-10.369,0-18.815-8.108-19.244-18.451l-13.929-337.353H418.407z M348.086,227.583c0.143-7.172-5.548-13.111-12.721-13.266
	c-7.108-0.156-13.111,5.548-13.266,12.721l-3.508,164.967c-0.143,7.172,5.548,13.111,12.721,13.266c0.091,0,0.182,0,0.286,0
	c7.043,0,12.825-5.639,12.981-12.708L348.086,227.583z M268.994,392.277V227.31c0-7.172-5.821-12.994-12.994-12.994
	c-7.172,0-12.994,5.821-12.994,12.994v164.967c0,7.185,5.821,12.994,12.994,12.994C263.172,405.271,268.994,399.462,268.994,392.277
	z M180.689,405.271c7.172-0.156,12.864-6.094,12.708-13.266l-3.495-164.967c-0.156-7.082-5.938-12.721-12.994-12.721
	c-0.091,0-0.182,0-0.273,0c-7.172,0.156-12.877,6.094-12.721,13.266l3.508,164.98c0.143,7.069,5.938,12.708,12.981,12.708
	C180.494,405.271,180.585,405.271,180.689,405.271z"/>
<rect x="214.81" y="25.987" style="fill:#FFDB6F;" width="82.379" height="24.233"/>
<g>
	<path style="fill:#201F2E;" d="M445.057,50.22h-121.88V25.883C323.177,11.616,311.561,0,297.281,0h-82.561
		c-14.28,0-25.896,11.616-25.896,25.883V50.22H66.943c-14.332,0-25.987,11.655-25.987,25.987v28.014
		c0,14.332,11.655,25.987,25.987,25.987h13.955l13.981,338.418c1,24.324,20.855,43.373,45.205,43.373h231.832
		c24.35,0,44.204-19.049,45.205-43.373l12.253-296.631c0.299-7.082-5.133-13.072-12.175-13.513c-0.091,0-0.182-0.013-0.273-0.013
		c-0.182,0-0.364,0-0.546,0c-6.926,0-12.682,5.47-12.968,12.448l-12.253,296.644c-0.429,10.343-8.875,18.451-19.244,18.451H140.084
		c-10.369,0-18.815-8.108-19.244-18.451l-13.929-337.353h311.496h26.65c14.332,0,25.987-11.655,25.987-25.987V76.207
		C471.044,61.876,459.389,50.22,445.057,50.22z M445.057,104.222H66.943V76.207h378.114l0.013,28.014
		C445.07,104.222,445.07,104.222,445.057,104.222z M214.81,25.987h82.379V50.22H214.81V25.987z"/>
	<path style="fill:#201F2E;" d="M322.098,227.037l-3.508,164.967c-0.143,7.172,5.548,13.111,12.721,13.266c0.091,0,0.182,0,0.286,0
		c7.043,0,12.825-5.639,12.981-12.708l3.508-164.98c0.143-7.172-5.548-13.111-12.721-13.266
		C328.257,214.161,322.254,219.865,322.098,227.037z"/>
	<path style="fill:#201F2E;" d="M243.006,227.31v164.967c0,7.185,5.821,12.994,12.994,12.994c7.172,0,12.994-5.808,12.994-12.994
		V227.31c0-7.172-5.821-12.994-12.994-12.994C248.827,214.317,243.006,220.138,243.006,227.31z"/>
	<path style="fill:#201F2E;" d="M176.908,214.317c-0.091,0-0.182,0-0.273,0c-7.172,0.156-12.877,6.094-12.721,13.266l3.508,164.98
		c0.143,7.069,5.938,12.708,12.981,12.708c0.091,0,0.182,0,0.286,0c7.172-0.156,12.864-6.094,12.708-13.266l-3.495-164.967
		C189.746,219.956,183.963,214.317,176.908,214.317z"/>
</g>
<g>
</g>
<g>
</g>
<g>
</g>
<g>
</g>
<g>
</g>
<g>
</g>
<g>
</g>
<g>
</g>
<g>
</g>
<g>
</g>
<g>
</g>
<g>
</g>
<g>
</g>
<g>
</g>
<g>
</g>
</svg>
